<svg width="322" height="493" viewBox="0 0 322 493" fill="none" xmlns="http://www.w3.org/2000/svg">
<path d="M88.3539 421.595C91.4246 416.517 98.0765 413.374 102.938 412.164L143.619 408.537C158.971 412.164 167.875 435.669 154.365 448.437C140.856 461.206 104.729 466.816 88.3539 468.025C76.0728 469.718 50.1288 468.17 44.6023 448.437C39.0757 428.705 73.0029 417.243 88.3539 421.595Z" fill="#D62828" stroke="black" stroke-width="6" stroke-linecap="round"/>
<path d="M85.3539 410.813C88.4246 405.65 95.0765 402.454 99.9378 401.225L140.619 397.537C155.971 401.225 164.875 425.122 151.365 438.102C137.856 451.083 101.729 456.787 85.3539 458.016C73.0728 459.737 47.1288 458.164 41.6023 438.102C36.0757 418.041 70.0029 406.388 85.3539 410.813Z" fill="#FCFAFA" stroke="black" stroke-width="6" stroke-linecap="round"/>
<path d="M120.5 381.537C131.077 381.537 139 389.038 139 397.537C139 406.036 131.077 413.537 120.5 413.537C109.923 413.537 102 406.036 102 397.537C102 389.038 109.923 381.537 120.5 381.537Z" fill="white" stroke="black" stroke-width="6"/>
<path d="M110.062 395.073V272.194L132.004 270V395.073C126.884 406.776 113.962 403.362 110.062 395.073Z" fill="black"/>
<path d="M84.4168 412.537C83.3764 417.299 83.6365 426.966 93 427.537" stroke="black" stroke-width="6" stroke-linecap="round"/>
<path d="M71.9305 412.537C69.6775 417.652 67.537 428.614 77 431.537" stroke="black" stroke-width="6" stroke-linecap="round"/>
<path d="M230.822 429.312C230.636 423.381 234.508 417.124 237.929 413.465L270.092 388.292C284.946 382.985 305.204 397.865 300.814 415.927C296.423 433.989 269.161 458.349 256.078 468.271C246.694 476.372 224.082 489.187 208.711 475.635C193.34 462.084 215.573 434.01 230.822 429.312Z" fill="#D62828" stroke="black" stroke-width="6" stroke-linecap="round"/>
<path d="M222.439 421.897C222.207 415.894 226.05 409.594 229.461 405.918L261.591 380.694C276.478 375.438 296.949 390.646 292.674 408.887C288.4 427.128 261.188 451.566 248.117 461.505C238.748 469.63 216.122 482.422 200.572 468.595C185.022 454.768 207.151 426.534 222.439 421.897Z" fill="#FCFAFA" stroke="black" stroke-width="6" stroke-linecap="round"/>
<path d="M236.005 378.213C244.879 372.46 255.609 374.444 260.232 381.575C264.855 388.706 262.287 399.311 253.412 405.064C244.537 410.818 233.808 408.833 229.185 401.702C224.562 394.571 227.13 383.966 236.005 378.213Z" fill="white" stroke="black" stroke-width="6"/>
<path d="M250.743 384.41C249.068 390.968 239.638 398.595 235.831 392.13C235.593 391.725 235.342 391.321 235.032 390.969L186.305 335.512C185.503 334.6 185.061 333.427 185.061 332.212V277.182C185.061 274.613 187.007 272.463 189.563 272.207L201.506 271.013C204.449 270.718 207.003 273.03 207.003 275.988V332.164C207.003 333.407 207.467 334.606 208.303 335.527L249.699 381.07C250.536 381.99 251.051 383.205 250.743 384.41Z" fill="black"/>
<path d="M222.591 423.853C224.308 428.415 229.785 436.385 237.953 431.771" stroke="black" stroke-width="6" stroke-linecap="round"/>
<path d="M212.113 430.646C213.005 436.164 217.172 446.526 226.702 443.831" stroke="black" stroke-width="6" stroke-linecap="round"/>
<mask id="path-13-inside-1_689_10614" fill="white">
<rect width="322" height="305" rx="3"/>
</mask>
<rect width="322" height="305" rx="3" fill="#C3A995" stroke="#2F2504" stroke-width="14" mask="url(#path-13-inside-1_689_10614)"/>
<path d="M202 84.5C210.143 84.5 218.199 90.3077 224.417 101.188C230.578 111.97 234.5 127.099 234.5 144C234.5 160.901 230.578 176.03 224.417 186.812C218.199 197.692 210.143 203.5 202 203.5C193.857 203.5 185.801 197.692 179.583 186.812C173.422 176.03 169.5 160.901 169.5 144C169.5 127.099 173.422 111.97 179.583 101.188C185.801 90.3077 193.857 84.5 202 84.5Z" fill="white" stroke="#2F2504" stroke-width="7"/>
<path d="M206 100C188 100 184 129.5 183 144.5C184.2 179.3 198 187.833 206 189C229.297 186.631 231.123 151.257 229.081 131.752C229.034 131.302 228.689 130.953 228.241 130.885L214.732 128.838C213.874 128.708 213.577 127.622 214.25 127.074L225.533 117.881C225.82 117.646 225.955 117.266 225.874 116.905C222.866 103.4 211.421 100 206 100Z" fill="#2F2504" stroke="#2F2504" stroke-width="4" stroke-linecap="round"/>
<path d="M103 84.5C111.143 84.5 119.199 90.3077 125.417 101.188C131.578 111.97 135.5 127.099 135.5 144C135.5 160.901 131.578 176.03 125.417 186.812C119.199 197.692 111.143 203.5 103 203.5C94.857 203.5 86.8006 197.692 80.583 186.812C74.4219 176.03 70.5 160.901 70.5 144C70.5 127.099 74.4219 111.97 80.583 101.188C86.8006 90.3077 94.857 84.5 103 84.5Z" fill="white" stroke="#2F2504" stroke-width="7"/>
<path d="M107 100C89 100 85 129.5 84 144.5C85.2 179.3 99 187.833 107 189C130.297 186.631 132.123 151.257 130.081 131.752C130.034 131.302 129.689 130.953 129.241 130.885L115.732 128.838C114.874 128.708 114.577 127.622 115.25 127.074L126.533 117.881C126.82 117.646 126.955 117.266 126.874 116.905C123.866 103.4 112.421 100 107 100Z" fill="#2F2504" stroke="#2F2504" stroke-width="4" stroke-linecap="round"/>
<path d="M116.282 181.032C119.882 153.807 147.449 169.689 160.782 181.032V215.706C144.449 215.492 112.682 208.257 116.282 181.032Z" fill="#C3A995"/>
<path d="M160.782 181.032C147.449 169.689 119.882 153.807 116.282 181.032C112.682 208.257 144.449 215.492 160.782 215.706" stroke="#2F2504" stroke-width="7" stroke-linecap="round"/>
<circle cx="235" cy="212" r="5" fill="#2F2504"/>
<circle cx="254" cy="196" r="5" fill="#2F2504"/>
<circle cx="259" cy="221" r="5" fill="#2F2504"/>
<path d="M315 7H117C257.442 13.8961 269.29 16.5306 286.221 33.4351C309.244 56.4221 311.547 137.643 315 184V7Z" fill="#C3A995"/>
<path d="M315 7H117C257.442 13.8961 269.29 16.5306 286.221 33.4351C309.244 56.4221 311.547 137.643 315 184V7Z" fill="black" fill-opacity="0.2"/>
</svg>
